<svg xmlns="http://www.w3.org/2000/svg" version="1.0" width="1132.000000" height="767.000000" preserveAspectRatio="xMidYMid meet" style=""><rect id="backgroundrect" width="100%" height="100%" x="0" y="0" fill="none" stroke="none"/>


<g class="currentLayer" style=""><title>Layer 1</title><g transform="translate(0,767) scale(0.10000000149011612,-0.10000000149011612) " fill="#00bea5" stroke="none" id="svg_1" class="selected" fill-opacity="1">
<path d="M9200 7660 l-1735 -5 -70 -28 c-276 -111 -515 -289 -680 -509 -91 -120 -116 -162 -176 -297 -67 -151 -104 -283 -149 -536 -22 -121 -46 -253 -54 -292 -9 -40 -18 -87 -21 -104 -12 -65 -85 -342 -113 -426 -72 -213 -186 -464 -274 -599 -55 -85 -178 -233 -244 -294 -105 -97 -273 -201 -412 -255 -48 -18 -181 -57 -296 -84 -330 -81 -531 -149 -726 -246 -150 -74 -183 -95 -281 -173 -227 -182 -395 -438 -495 -752 -58 -182 -96 -282 -150 -392 -273 -556 -762 -982 -1454 -1266 -171 -70 -267 -103 -492 -171 -166 -50 -195 -61 -338 -129 -135 -63 -316 -183 -440 -292 -77 -68 -219 -233 -276 -320 -89 -139 -171 -333 -190 -450 l-7 -40 5597 0 5596 0 0 3835 0 3835 -192 -2 c-106 -2 -974 -5 -1928 -8z" id="svg_2" fill="#00bea5" fill-opacity="1"/>
</g></g></svg>